<svg width="64" height="64" viewBox="0 0 64 64" fill="none" xmlns="http://www.w3.org/2000/svg">
  <defs>
    <linearGradient id="feather" x1="21" y1="8" x2="49" y2="42" gradientUnits="userSpaceOnUse">
      <stop stop-color="#FF6B5F"/>
      <stop offset="0.42" stop-color="#7147FF"/>
      <stop offset="1" stop-color="#20135F"/>
    </linearGradient>
  </defs>
  <rect x="2" y="2" width="60" height="60" rx="18" fill="#101828"/>
  <path d="M49.5 8.5C35.8 9.4 26.2 14.2 21.3 23.1c-3.1 5.6-2.7 11.3-1.7 15.2 4.4-1.2 9.5-3.5 13.7-7.6 5.6-5.5 9.3-12.7 16.2-22.2Z" fill="url(#feather)"/>
  <path d="M16.5 49.8c7.2-11.5 14.9-20.3 25.6-29.1" stroke="#FFF9F2" stroke-width="4" stroke-linecap="round"/>
  <path d="M17 40.5a10.5 10.5 0 1 0 7.7 16.9" stroke="#6A3CFF" stroke-width="4" stroke-linecap="round"/>
  <path d="M12.4 36.3a16.5 16.5 0 1 0 20.3 24.8" stroke="#FF6B5F" stroke-width="4" stroke-linecap="round"/>
  <circle cx="17" cy="50" r="4.2" fill="#FFF9F2"/>
</svg>
